<?xml version="1.0" encoding="UTF-8" standalone="no"?>
<!DOCTYPE svg PUBLIC "-//W3C//DTD SVG 1.1//EN" "http://www.w3.org/Graphics/SVG/1.1/DTD/svg11.dtd">
<svg width="100%" height="100%" viewBox="0 0 1281 597" version="1.1" xmlns="http://www.w3.org/2000/svg" xmlns:xlink="http://www.w3.org/1999/xlink" xml:space="preserve" xmlns:serif="http://www.serif.com/" style="fill-rule:evenodd;clip-rule:evenodd;stroke-linecap:round;stroke-linejoin:round;stroke-miterlimit:1.5;">
    <g transform="matrix(1,0,0,1,-1.30105,-204.31)">
        <g transform="matrix(1,0,0,1,1.37664,0)">
            <g id="Layer1">
                <g id="ground---hills" serif:id="ground + hills">
                    <g transform="matrix(1,0,0,0.779633,0,174.488)">
                        <path d="M-0.076,447.775C-0.076,447.775 27.61,438.887 33.979,436.507C58.693,427.271 86.57,425.017 112.653,422.821C153.671,419.367 194.678,427.553 235.358,431.089C282.847,435.216 335.9,428.587 382.011,416.692C472.819,393.265 551.767,339.417 648.377,337.736C716.175,336.557 872.737,250.682 1058.97,304.824C1107.91,319.051 1183.88,365.531 1230.57,365.531C1231.99,365.531 1280.88,374.793 1280.88,374.793L1279.75,799.635L0.489,799.635L-0.076,447.775Z" style="fill:rgb(112,170,138);"/>
                    </g>
                    <g transform="matrix(1.18717,0,0,0.589776,0.545319,336.358)">
                        <rect x="0.351" y="545.288" width="1077.09" height="242.185" style="fill:rgb(115,229,165);stroke:rgb(115,229,165);stroke-width:1.07px;"/>
                    </g>
                </g>
                <g id="sun" transform="matrix(0.704344,0,0,0.704344,122.704,183.898)">
                    <circle cx="454.117" cy="102.397" r="73.417" style="fill:rgb(255,237,101);"/>
                </g>
            </g>
        </g>
        <g transform="matrix(1,0,0,1,1.37664,0)">
            <g id="farmer">
                <g transform="matrix(-0.144581,1.7706e-17,-1.61776e-17,-0.1321,788.57,791.352)">
                    <path d="M757.06,1524.69C866.682,1524.69 1140.74,1925.18 1085.93,2034.81C1031.12,2144.43 483.005,2144.43 428.194,2034.81C373.383,1925.18 647.438,1524.69 757.06,1524.69Z" style="fill:rgb(254,194,175);"/>
                </g>
                <g id="_-Curve-" serif:id="(Curve)" transform="matrix(0.271296,0,0,0.236666,490.025,154.809)">
                    <path d="M785.119,1431.28C785.119,1412.87 773.688,1397.92 759.607,1397.92L631.767,1397.92C617.687,1397.92 606.255,1412.87 606.255,1431.28L605.082,1517.77C605.082,1536.18 786.644,1533.42 786.644,1515.01L785.119,1431.28Z" style="fill:rgb(225,151,135);"/>
                </g>
                <g transform="matrix(0.207505,0,0,0.207505,537.255,340.106)">
                    <path d="M593.987,454.414C594.771,454.414 593.218,454.374 593.048,454.414C592.025,454.657 591.088,455.24 590.125,455.642C587.352,456.8 585.113,458.252 583.412,460.766C577.847,468.988 572.174,477.241 567.35,485.923C564.968,490.208 561.17,495.546 560.456,500.433C559.882,504.367 562.013,509.649 560.528,513.353C559.483,515.958 556.551,517.336 555.258,519.815C554.215,521.816 555.471,524.601 553.887,526.311C549.759,530.767 544.64,527.663 540.208,526.24C533.865,524.203 525.497,520.241 520.934,515.267C519.204,513.381 518.203,511.025 516.567,509.096C514.779,506.986 511.606,505.671 510.359,503.176C509.528,501.514 509.113,499.505 508.591,497.726C507.904,495.387 507.202,492.946 507.471,490.471C508.1,484.685 517.868,484.045 521.764,483.18C526.299,482.173 529.935,479.432 534.18,477.766C537.281,476.549 541.927,476.01 544.358,473.58C550.441,467.497 552.974,454.067 562.297,451.816C570.303,449.883 578.272,451.079 586.117,453.115C589.151,453.903 592.174,454.61 595.142,455.642C595.857,455.891 597.722,456.423 597.667,455.787" style="fill:rgb(37,37,37);"/>
                </g>
                <g transform="matrix(0.207505,0,0,0.207505,444.344,298.222)">
                    <path d="M1118.09,629.522C1205.22,629.522 1277.46,770.39 1277.46,888.396C1277.46,1006.4 961.724,1006.4 961.724,888.396C961.724,770.39 1030.96,629.522 1118.09,629.522Z" style="fill:rgb(254,194,175);"/>
                </g>
                <g transform="matrix(0.207505,0,0,0.207505,537.255,340.106)">
                    <path d="M603.854,457.806C603.854,457.806 671.049,468.587 671.144,504.226C671.239,539.865 647.387,583.347 647.387,583.347C647.387,583.347 646.399,596.982 671.81,604.221C671.81,604.221 681.784,597.286 670.794,625.46C659.805,653.635 612.494,735.154 670.223,774.043C670.223,774.043 534.383,779.209 515.611,699.087C496.838,618.966 579.18,460.698 603.854,457.806Z" style="fill:rgb(248,179,164);"/>
                </g>
                <g id="eyes" transform="matrix(0.917843,0,0,0.917843,168.516,156.085)">
                    <g transform="matrix(0.22608,0,0,0.22608,402.918,205.619)">
                        <circle cx="615.941" cy="521.669" r="9.153" style="stroke:black;stroke-width:14.06px;"/>
                    </g>
                    <g transform="matrix(0.22608,0,0,0.22608,425.448,205.438)">
                        <circle cx="615.941" cy="521.669" r="9.153" style="stroke:black;stroke-width:14.06px;"/>
                    </g>
                </g>
                <g transform="matrix(0.207505,0,0,0.210273,539.597,329.198)">
                    <path d="M659.568,610.908C673.999,610.908 685.715,622.624 685.715,637.055C685.715,651.486 633.421,651.486 633.421,637.055C633.421,622.624 645.137,610.908 659.568,610.908Z" style="fill:rgb(245,132,118);"/>
                </g>
                <g transform="matrix(0.207505,0,0,0.226787,540.817,325.301)">
                    <path d="M680.847,518.547C652.327,526.046 712.933,490.955 741.804,518.972C741.804,518.972 709.367,511.049 680.847,518.547Z" style="fill:rgb(143,48,0);"/>
                </g>
                <g transform="matrix(-0.207505,0,0,0.226787,812.937,324.998)">
                    <path d="M680.847,518.547C652.327,526.046 712.933,490.955 741.804,518.972C741.804,518.972 709.367,511.049 680.847,518.547Z" style="fill:rgb(143,48,0);"/>
                </g>
                <g transform="matrix(0.21886,0,0,0.22117,529.813,342.686)">
                    <path d="M606.431,626.853C606.431,626.853 674.395,698.618 746.159,626.853C746.159,626.853 687.091,674.587 606.431,626.853Z"/>
                </g>
                <g transform="matrix(0.21054,0,0,0.252519,535.606,304.204)">
                    <path d="M587.982,670.417C586.879,669.337 588.928,673.379 589.687,674.723C591.14,677.298 591.814,679.922 592.582,682.738C593.445,685.906 597.037,686.706 598.225,689.715C600.723,696.047 601.452,702.58 603.568,708.936C605.026,713.316 619.056,719.034 622.192,720.9C633.086,727.382 642.944,731.657 655.891,733.354C661.159,734.044 662.262,738.187 668.952,737.586C676.964,736.867 686.592,736.536 694.41,734.468C698.388,733.415 727.327,732.695 736.231,725.171C739.353,722.533 745.305,713.777 748.535,711.162C753.543,707.109 758.81,706.449 759.054,706.041C761.088,702.652 760.738,698.203 762.987,695.058C765.552,691.472 766.409,686.432 767.777,681.494C769.725,674.463 771.279,663.552 780.727,660.101C785.207,658.465 790.384,660.619 794.531,658.988C797.888,657.667 801.365,655.338 805.071,655.279C839.084,654.735 833.189,701.401 826.443,723.855C826.297,724.341 826.725,723.433 826.443,723.855C824.297,727.077 825.787,730.629 824.33,734.173C823.508,736.172 818.459,743.943 816.498,744.934C816.464,744.951 813.942,739.273 813.902,739.348C810.676,745.352 809.272,749.012 804.994,754.359C803.532,756.187 798.036,757.614 796.162,759.182C792.961,761.861 794.28,766.207 791.481,769.311C790.501,770.396 784.512,772.817 784.512,771.356C784.512,769.891 785.763,765.806 784.882,766.976C782.162,770.592 776.496,781.573 771.672,782.859C767.613,783.94 765.533,778.481 760.538,780.781C756.97,782.424 753.563,784.395 750.073,786.198C749.354,786.568 748.042,787.946 747.848,787.162C747.587,786.107 748.077,782.223 745.77,782.859C740.844,784.216 739.151,792.701 733.746,793.545C728.777,794.321 727.581,787.106 722.39,787.755C716.95,788.435 712.421,793.067 706.731,793.248C701.9,793.402 696.243,788.108 691.515,790.28C689.024,791.424 676.238,803.705 673.999,801.19C671.934,798.869 673.464,794.094 671.254,791.838C670.523,791.091 663.837,802.518 662.869,803.417C660.687,805.444 652.352,795.707 649.064,794.882C644.143,793.648 642.171,804.202 637.337,802.154C634.424,800.919 634.275,797.922 632.068,796.59C630.252,795.495 627.153,797.409 625.237,796.663C620.901,794.975 620.839,789.575 619.077,786.051C618.872,785.641 613.464,791.598 611.136,790.353C608.227,788.798 609.002,782.165 605.646,781.298C598.567,779.469 591.798,787.028 585.087,784.64C582.8,783.826 582.764,779.664 580.261,779C576.658,778.044 573.724,781.233 570.319,780.408C569.459,780.199 571.593,771.866 570.689,771.356C566.342,768.902 560.235,775.43 556.364,772.987C552.471,770.529 552.648,763.379 548.72,760.296C546.906,758.872 543.597,761.225 541.892,760.146C539.45,758.6 538.859,755.225 537.29,752.798C535.967,750.752 531.982,752.79 530.239,751.167C525.097,746.379 515.946,728.807 514.838,721.603C511.463,699.647 507.767,704.637 513.316,682.441C513.994,679.73 516.178,671.714 517.504,671.714" style="fill:rgb(108,41,8);"/>
                </g>
                <g transform="matrix(0.212693,0,0,0.221399,534.311,332.016)">
                    <path d="M815.404,585.38C815.404,582.926 808.553,580.281 806.831,579.957C797.899,578.276 787.526,575.982 778.528,578.409C762.31,582.781 747.73,593.157 731.842,598.962C717.315,604.27 701.691,605.081 687.014,609.601C684.721,610.307 677.006,612.077 675.394,613.888C674.66,614.712 671.935,620.913 671.469,620.913C671.135,620.913 669.824,618.184 669.401,617.761C668.149,616.509 666.171,615.974 664.961,614.765C664.414,614.217 659.938,614.788 659.331,614.765C654.291,614.569 649.233,614 644.199,613.63C627.87,612.431 609.592,611.035 594.93,602.887C581.836,595.61 570.225,585.801 555.937,580.681C551.309,579.022 546.594,575.273 541.374,575.928C539.519,576.16 532.379,572.428 527.428,581.882C525.806,584.98 524.3,590.993 522.475,594.185C518.424,601.271 518.134,622.24 515.416,629.463C513.277,635.146 511.008,659.233 511.008,665.276C511.008,666.395 512.286,663.434 513.02,662.588C514.469,660.919 516.547,659.589 518.393,658.406C524.042,654.784 530.752,652.228 537.5,651.95C545.879,651.604 543.841,656.898 548.139,661.196C548.553,661.61 550.489,659.269 550.878,658.921C552.619,657.363 555.572,654.574 558.158,654.377C561.309,654.137 562.694,662.867 566.163,663.932C572.079,665.748 575.352,657.644 581.141,659.335C583.54,660.035 585.228,663.916 586.512,665.842C587.033,666.623 589.232,664.013 589.353,663.881C591.026,662.045 593.719,657.883 596.22,657.167C599.969,656.094 602.969,664.244 605.775,666.153C606.261,666.484 608.214,658.439 611.043,659.954C613.801,661.431 614.68,668.098 616.414,670.697C616.877,671.392 618.719,673.843 619.874,673.021C623.228,670.633 624.387,664.939 628.552,662.899C630.988,661.706 636.902,670.23 637.898,671.781C638.226,672.292 639.125,675.79 639.499,675.604C644.219,673.252 642.569,662.923 645.439,662.486C650.782,661.672 652.982,669.822 654.631,673.538C654.863,674.061 657.04,677.789 657.99,676.534C660.038,673.829 660.995,670.463 663.049,667.701C667.176,662.154 674.242,655.153 675.187,647.818C676.268,639.427 678.72,664.151 685.206,672.608C686.292,674.024 687.724,675.172 688.924,676.481C689.054,676.622 691.129,678.597 691.196,678.289C691.836,675.382 691.495,672.958 692.642,669.975C693.005,669.033 695.778,663.5 697.806,664.707C698.526,665.136 698.323,668.649 698.426,669.354C698.814,672.018 700.386,675.421 702.661,676.998C705.086,678.679 707.494,669.308 710.77,669.147C716.799,668.851 717.825,677.784 723.371,676.688C726.324,676.103 726.293,668.448 729.725,667.599C732.623,666.882 735.144,673.99 739.175,673.125C740.944,672.745 740.088,668.434 741.861,667.548C743.975,666.49 747.153,671.435 749.97,670.027C753.229,668.397 753.488,663.834 756.062,661.66C756.304,661.456 759.259,659.132 759.936,659.697C760.408,660.091 762.281,663.97 762.983,663.57C765.912,661.899 766.268,657.007 769.748,655.41C773.791,653.555 777.083,658.282 779.561,660.627C779.664,660.725 782.971,664.3 783.072,664.139C785.35,660.486 788.963,656.053 792.472,653.449C793.846,652.429 798.225,655.933 799.239,656.649C800.052,657.223 801.745,659.14 801.82,658.148C802.055,655.055 801.82,651.848 801.82,648.749C801.82,648.615 801.486,645.142 801.769,645.082C808.65,643.625 817.715,650.459 822.116,655.101C823.522,656.584 824.964,658.389 825.887,660.007C826.413,660.929 826.635,664.008 826.971,663.001C831.013,650.876 830.186,640.128 828.521,627.78C827.329,618.935 827.366,609.965 823.977,601.494C822.248,597.172 821.244,592.12 818.966,588.066C817.654,585.729 815.404,585.38 815.404,585.38Z" style="fill:rgb(143,48,0);"/>
                </g>
                <g transform="matrix(0.159295,0.0698895,-0.076611,0.174615,604.151,322.75)">
                    <path d="M547.185,500.379C563.02,500.379 563.02,557.761 547.185,557.761C531.35,557.761 518.494,544.905 518.494,529.07C518.494,513.235 531.35,500.379 547.185,500.379Z" style="fill:rgb(248,179,164);"/>
                </g>
                <g transform="matrix(-0.159295,0.0698895,0.076611,0.174615,749.963,323.82)">
                    <path d="M547.185,500.379C563.02,500.379 563.02,557.761 547.185,557.761C531.35,557.761 518.494,544.905 518.494,529.07C518.494,513.235 531.35,500.379 547.185,500.379Z" style="fill:rgb(254,194,175);"/>
                </g>
                <g transform="matrix(0.207505,0,0,0.207505,537.255,340.106)">
                    <path d="M555.636,508.241C556.419,505.872 554.748,509.953 554.429,510.413C551.581,514.522 546.241,520.029 544.859,525.615C543.898,529.499 553.907,524.207 554.028,524.567C554.22,525.139 553.356,528.414 553.866,528.749C555.287,529.684 557.162,527.109 557.162,529.233C557.162,535.336 557.22,536.97 557.245,536.953C560.967,534.506 561.705,528.123 563.678,524.488C566.225,519.797 570.734,517.455 573.169,513.551C576.6,508.05 576.862,500.691 579.762,494.89C581.672,491.07 586.03,490.289 588.53,487.17C591.37,483.628 591.817,477.986 594.241,474.3C596.413,470.997 601.978,469.804 605.098,467.385C609.331,464.104 611.421,458.14 615.796,455.079C624.603,448.918 635.291,450.259 645.394,447.76C647.988,447.118 672.635,441.423 673.622,442.45C674.056,442.903 685.194,448.39 686.731,448.565C690.529,448.999 694.851,447.896 698.557,448.725C700.456,449.15 702.052,451.408 704.184,451.941C710.447,453.507 721.218,449.4 726.785,452.184C727.48,452.531 732.706,460.506 735.553,462.882C739.588,466.249 747.816,463.181 751.799,468.509C766.117,487.666 766.25,505.826 783.121,522.932C784.604,524.435 789.931,536.625 791.448,538.081C791.61,538.237 793.02,535.571 793.056,535.508C794.068,533.712 795.07,531.322 796.515,529.877C798.031,528.361 799.424,533.027 800.939,534.542C801.721,535.324 800.457,532.383 800.137,531.326C799.475,529.141 799.493,527.072 799.493,524.809C799.493,522.341 806.512,515.837 797.965,510.573C793.822,508.021 805.149,504.488 802.305,499.072C800.606,495.834 796.787,494.19 795.391,490.708C794.414,488.272 795.754,484.523 794.665,482.345C794.215,481.444 789.472,481.24 788.394,480.01C784.98,476.114 782.474,467.323 782.282,462.076C782.188,459.509 782.672,456.715 782.119,454.193C778.828,439.167 767.261,448.894 759.519,440.683C754.835,435.714 751.422,429.869 746.41,425.239C741.063,420.299 734.293,417.633 728.957,413.015C727.166,411.466 726.479,408.476 724.695,407.142C722.524,405.52 717.658,406.556 714.962,405.133C711.934,403.534 708.623,399.514 705.149,398.941C694.758,397.227 684.125,399.473 674.023,399.744C668.499,399.892 664.15,396.672 658.742,397.412C648.965,398.751 630.336,400.813 623.115,406.903C619.418,410.022 624.728,418.093 621.587,420.013C613.648,424.863 602.894,422.157 594.4,425.481C586.497,428.574 588.747,439.66 583.383,445.024C579.685,448.723 571.795,449.939 569.309,454.677C566.229,460.55 565.611,467.858 562.551,473.978C556.947,485.185 552.85,482.889 550.486,495.454C549.984,498.123 547.887,502.223 549.12,504.945C550.549,508.099 556.936,515.317 554.509,512.344" style="fill:rgb(52,17,0);stroke:rgb(143,48,0);stroke-width:6.02px;"/>
                </g>
                <g transform="matrix(0.207505,0,0,0.207505,537.258,337.249)">
                    <path d="M573.388,440.273C573.388,440.273 572.162,420.953 572.162,419.569C572.162,413.988 571.417,408.469 570.855,402.911C568.251,377.14 563.019,374.318 580.388,356.95C584.243,353.095 618.622,338.637 627.227,337C649.313,332.8 673.416,325.586 695.496,328.933C707.669,330.778 729.943,346.396 741.385,350.032C756.32,354.777 765.832,350.953 772.967,368.573C776.861,378.189 778.012,404.734 773.459,413.048C771.215,417.147 769.821,421.534 769.446,426.09C769.233,428.663 772.525,433.623 769.95,433.819C759.685,434.599 708.36,427.891 698.199,425.287C692.069,423.716 686.634,418.066 680.337,417.562C669.818,416.721 659.531,419.384 649.028,419.569C630.51,419.894 614.801,423.705 596.947,427.497C593.543,428.22 565.352,446.3 573.388,440.273Z" style="fill:rgb(210,189,130);"/>
                </g>
                <g transform="matrix(0.210009,0,0,0.207505,535.459,339.531)">
                    <path d="M577.496,419.657C567.049,416.207 574.303,407.581 572.62,399.941C571.719,395.848 568.696,399.775 568.696,394.372C568.696,394.121 568.55,393.205 568.785,393.09C589.258,383.062 613.92,379.707 635.847,373.184C641.154,371.605 645.845,366.571 650.54,365.409C659.355,363.228 678.928,361.101 687.618,363.958C702.868,368.972 721.496,372.879 735.204,380.701C738.394,382.521 739.105,386.84 742.552,388.563C745.106,389.84 775.786,394.594 777.066,395.823C777.253,396.002 777.066,397.181 777.066,397.447C777.066,402.135 772.115,408.049 773.477,413.506C773.668,414.274 776.982,417.688 776.894,417.864C776.702,418.247 770.941,415.629 770.402,415.472C766.082,414.218 760.284,415.704 756.22,414.105C751.599,412.287 744.98,411.884 739.988,410.005C722.901,403.576 705.538,393.674 687.361,390.613C682.377,389.774 664.815,388.216 660.367,392.663C657.647,395.384 654.602,397.803 650.628,398.472C639.631,400.324 627.89,400.232 617.308,403.767C612.968,405.216 601.109,405.188 597.659,408.638C596.923,409.375 576.722,421.71 576.559,421.71" style="fill:rgb(94,56,124);stroke:rgb(141,42,176);stroke-width:5.99px;"/>
                </g>
                <g transform="matrix(0.207505,0,0,0.203905,537.255,342.018)">
                    <path d="M583.293,407.396C583.293,407.396 613.5,397.563 618.059,396.419C643.641,390.002 664.685,376.616 692.635,381.568C694.606,381.917 690.797,380.763 692.635,381.568C699.985,384.788 735.465,398.595 740.13,403.073C746.147,408.85 764.637,400.332 772.78,405.089C798.209,419.945 811.304,460.933 829.494,483.211C835.556,490.636 863.209,491.788 866.754,498.877C871.154,507.678 834.334,521.556 829.643,522.894C821.564,525.199 809.696,527.707 802.128,525.796C785.481,521.591 783.929,481.593 770.611,471.461C754.089,458.891 665.44,449.803 648.909,453.081C632.186,456.398 623.839,458.353 606.767,459.704C596.583,460.509 564.653,450.604 561.588,453.669C552.062,463.195 556.722,473.52 539.464,479.352C533.751,481.283 508.326,485.642 509.289,493.119C511.04,506.709 532.135,519.575 544.415,519.575C550.285,519.575 549.69,520.155 552.925,524.991C553.251,525.479 559.307,530.206 559.113,530.254C548.209,532.952 520.151,525.021 512.849,517.718C507.546,512.416 507.599,501.795 502.948,497.145C501.332,495.529 497.398,489.276 499.082,486.465C506.455,474.161 521.294,481.48 527.707,471.927C538.394,456.005 549.588,433.797 562.826,420.559C568.308,415.077 583.293,415.714 583.293,407.396Z" style="fill:rgb(233,211,146);"/>
                </g>
                <g transform="matrix(0.196032,0,0,0.148079,548.95,290.26)">
                    <path d="M530.021,1498.19C513.742,1500.87 431.502,1482.02 413.092,1529.39C387.761,1594.58 530.116,2024.26 530.136,2024.27C560.575,2039.49 787.46,2029.49 792.917,2024.35C813.832,2004.63 933.928,1613.12 912.255,1531.6C898.079,1478.28 795.297,1486.94 776.178,1493.23C772.845,1494.32 717.188,1509.44 712.183,1510.3C685.31,1514.91 601.837,1513.14 574.489,1508.81" style="fill:rgb(224,255,240);"/>
                </g>
                <g transform="matrix(0.279875,0,0,0.207505,539.94,164.886)">
                    <path d="M379.398,1760.65C379.398,1747.03 371.203,1735.98 361.109,1735.98L324.529,1735.98C314.435,1735.98 306.24,1747.03 306.24,1760.65L306.24,2190.6C306.24,2204.21 314.435,2215.27 324.529,2215.27L361.109,2215.27C371.203,2215.27 379.398,2204.21 379.398,2190.6L379.398,1760.65Z" style="fill:rgb(254,194,175);"/>
                </g>
                <g transform="matrix(0.204334,0,0,0.207505,540.745,159.251)">
                    <path d="M806.259,2073.81L546.235,2073.81L546.235,2180.08C546.235,2209.41 570.044,2233.22 599.369,2233.22L753.125,2233.22C782.451,2233.22 806.259,2209.41 806.259,2180.08L806.259,2073.81Z" style="fill:rgb(82,121,169);"/>
                </g>
                <g transform="matrix(0.184236,0,0,0.28735,580.746,14.0962)">
                    <path d="M677.184,2025.72C677.184,2013.7 661.965,2003.94 643.22,2003.94L575.292,2003.94C556.546,2003.94 541.327,2013.7 541.327,2025.72L541.327,2536.95C541.327,2548.97 556.546,2558.73 575.292,2558.73L643.22,2558.73C661.965,2558.73 677.184,2548.97 677.184,2536.95L677.184,2025.72Z" style="fill:rgb(82,129,162);"/>
                </g>
                <g transform="matrix(0.184236,0,0,0.28735,552.646,14.1704)">
                    <path d="M677.184,2025.72C677.184,2013.7 661.965,2003.94 643.22,2003.94L575.292,2003.94C556.546,2003.94 541.327,2013.7 541.327,2025.72L541.327,2536.95C541.327,2548.97 556.546,2558.73 575.292,2558.73L643.22,2558.73C661.965,2558.73 677.184,2548.97 677.184,2536.95L677.184,2025.72Z" style="fill:rgb(82,129,162);"/>
                </g>
                <g transform="matrix(-0.279875,0,0,0.207505,817.172,163.197)">
                    <path d="M379.398,1760.65C379.398,1747.03 371.203,1735.98 361.109,1735.98L324.529,1735.98C314.435,1735.98 306.24,1747.03 306.24,1760.65L306.24,2190.6C306.24,2204.21 314.435,2215.27 324.529,2215.27L361.109,2215.27C371.203,2215.27 379.398,2204.21 379.398,2190.6L379.398,1760.65Z" style="fill:rgb(254,194,175);"/>
                </g>
                <g transform="matrix(0.207505,0,0,0.263205,552.778,118.187)">
                    <path d="M459.963,1525.87C459.963,1509.26 446.473,1495.77 429.857,1495.77C429.857,1495.77 379.351,1486.1 356.639,1516.85C340.734,1538.38 339.537,1627.21 339.537,1627.21C339.537,1643.83 459.963,1643.83 459.963,1627.21L459.963,1525.87Z" style="fill:rgb(224,255,240);"/>
                </g>
                <g transform="matrix(-0.207505,0,0,0.263205,803.834,116.668)">
                    <path d="M459.963,1525.87C459.963,1509.26 446.473,1495.77 429.857,1495.77C429.857,1495.77 379.351,1486.1 356.639,1516.85C340.734,1538.38 339.537,1627.21 339.537,1627.21C339.537,1643.83 459.963,1643.83 459.963,1627.21L459.963,1525.87Z" style="fill:rgb(224,255,240);"/>
                </g>
                <g transform="matrix(0.155836,0,0,0.157487,570.204,274.721)">
                    <path d="M449.51,1522.88C454.412,1535.18 460.543,1547.24 463.786,1560.17C472.409,1594.54 509.448,1725.39 520.26,1804.48C521.99,1817.13 540.601,1905.88 542.908,1945.59C543.938,1963.32 547.735,2000.19 549.798,2002.17C555.317,2007.47 608.375,2007.14 616.331,2004.52C627.176,2000.96 603.751,1812.9 599.603,1798.77C570.351,1699.17 577.645,1689.76 548.627,1590.24C543.328,1572.07 544.889,1551.94 537.205,1534.3C531.929,1522.19 515.627,1493.76 498.393,1497.18C492.826,1498.28 484.341,1500.43 478.741,1498.69C458.022,1492.23 447.155,1492.37 447.155,1515.65" style="fill:rgb(82,121,169);"/>
                </g>
                <g transform="matrix(-0.155836,0,0,0.157487,787.325,274.346)">
                    <path d="M449.51,1522.88C454.412,1535.18 460.543,1547.24 463.786,1560.17C472.409,1594.54 509.448,1725.39 520.26,1804.48C521.99,1817.13 540.601,1905.88 542.908,1945.59C543.938,1963.32 547.735,2000.19 549.798,2002.17C555.317,2007.47 608.375,2007.14 616.331,2004.52C627.176,2000.96 603.751,1812.9 599.603,1798.77C570.351,1699.17 577.645,1689.76 548.627,1590.24C543.328,1572.07 544.889,1551.94 537.205,1534.3C531.929,1522.19 515.627,1493.76 498.393,1497.18C492.826,1498.28 484.341,1500.43 478.741,1498.69C458.022,1492.23 447.155,1492.37 447.155,1515.65" style="fill:rgb(82,121,169);"/>
                </g>
                <g>
                    <g transform="matrix(1,0,0,1,-1.37664,0)">
                        <path d="M647.528,748.575C649.33,746.38 652.064,744.98 655.122,744.98C658.209,744.98 662.402,746.016 664.204,748.246C665.626,748.52 673.383,750.547 676.492,747.819C678.936,745.676 677.184,761.529 677.184,761.529C677.184,763.254 667.673,763.381 660.197,763.214C658.715,764.11 656.978,764.626 655.122,764.626C652.003,764.626 649.222,763.17 647.422,760.9C646.986,760.41 646.583,759.798 646.255,759.033C645.642,757.752 645.299,756.317 645.299,754.803C645.299,754.08 645.377,753.375 645.526,752.695C645.741,750.842 646.508,749.519 647.528,748.575Z" style="fill:rgb(93,60,16);"/>
                    </g>
                    <g transform="matrix(0.987839,0,0,1.67319,6.90747,-514.531)">
                        <path d="M678.287,763.575C678.287,763.14 677.689,762.787 676.953,762.787L648.263,762.787C647.527,762.787 646.929,763.14 646.929,763.575L646.929,765.15C646.929,765.585 647.527,765.938 648.263,765.938L676.953,765.938C677.689,765.938 678.287,765.585 678.287,765.15L678.287,763.575Z" style="fill:rgb(188,153,87);"/>
                    </g>
                </g>
                <g transform="matrix(-1,0,0,1,1358.06,0)">
                    <g transform="matrix(1,0,0,1,-1.37664,0)">
                        <path d="M647.528,748.575C649.33,746.38 652.064,744.98 655.122,744.98C658.209,744.98 662.402,746.016 664.204,748.246C665.626,748.52 673.383,750.547 676.492,747.819C678.936,745.676 677.184,761.529 677.184,761.529C677.184,763.254 667.673,763.381 660.197,763.214C658.715,764.11 656.978,764.626 655.122,764.626C652.003,764.626 649.222,763.17 647.422,760.9C646.986,760.41 646.583,759.798 646.255,759.033C645.642,757.752 645.299,756.317 645.299,754.803C645.299,754.08 645.377,753.375 645.526,752.695C645.741,750.842 646.508,749.519 647.528,748.575Z" style="fill:rgb(93,60,16);"/>
                    </g>
                    <g transform="matrix(0.987839,0,0,1.67319,6.90747,-514.531)">
                        <path d="M678.287,763.575C678.287,763.14 677.689,762.787 676.953,762.787L648.263,762.787C647.527,762.787 646.929,763.14 646.929,763.575L646.929,765.15C646.929,765.585 647.527,765.938 648.263,765.938L676.953,765.938C677.689,765.938 678.287,765.585 678.287,765.15L678.287,763.575Z" style="fill:rgb(188,153,87);"/>
                    </g>
                </g>
                <g transform="matrix(0.987839,0,0,1.67319,6.90747,-514.531)">
                    <path d="M678.287,763.575C678.287,763.14 677.689,762.787 676.953,762.787L648.263,762.787C647.527,762.787 646.929,763.14 646.929,763.575L646.929,765.15C646.929,765.585 647.527,765.938 648.263,765.938L676.953,765.938C677.689,765.938 678.287,765.585 678.287,765.15L678.287,763.575Z" style="fill:rgb(188,153,87);"/>
                </g>
            </g>
        </g>
        <g transform="matrix(1,0,0,1,1.37664,0)">
            <g id="stand">
                <g transform="matrix(0.207505,0,0,0.207505,600.506,206.975)">
                    <rect x="844.827" y="963.003" width="1409.62" height="827.955" style="fill:rgb(24,22,29);"/>
                </g>
                <g transform="matrix(0.207505,0,0,0.207505,600.342,196.509)">
                    <rect x="1491.35" y="1081.26" width="73.053" height="767.327" style="fill:rgb(47,27,16);"/>
                </g>
                <g transform="matrix(0.207505,0,0,0.207505,599.598,197.45)">
                    <rect x="863.437" y="1830.48" width="1375.72" height="159.057" style="fill:rgb(74,41,23);"/>
                </g>
                <g transform="matrix(0.207505,0,0,0.207505,599.598,197.45)">
                    <path d="M859.378,1885.31C962.721,1890.93 1020.51,1902.39 1115.58,1878.45C1181.23,1861.92 1388.29,1891.23 1454.93,1895.11C1569.37,1901.78 1589.69,1895.89 1703.69,1906.63C1779.62,1913.78 1907.42,1881.18 1983.8,1870.39C2022.3,1864.96 2228.18,1872.79 2248.38,1892.99C2252.06,1896.67 2248.38,1887.04 2248.38,1892.99C2248.38,1982.31 2263.49,2006.35 2262.59,2007.25C2256.31,2013.54 1107.44,1993.98 890.901,2004.92C861.687,2006.39 822.786,1884.05 890.061,1884.05" style="fill:rgb(105,67,46);"/>
                </g>
                <g transform="matrix(0.207505,0,0,0.222123,516.039,156.033)">
                    <path d="M1145.07,893.041C1141.73,890.814 1164.68,1020.9 1167.72,1082.38C1173.55,1200.15 1172.32,1322.6 1187.97,1440.88C1189.07,1449.16 1187.74,1457.56 1187.49,1465.88C1187.28,1472.95 1187.01,1480.01 1186.66,1487.05C1178.97,1642.99 1166.53,1798.85 1158.81,1954.85C1151.92,2094.24 1185.08,2133.5 1170.49,2272.2C1162.04,2352.54 1160.58,2437.74 1153.68,2517.95C1153.46,2520.51 1149.63,2649.89 1150.05,2650C1195.06,2661.6 1291.07,2658.63 1292.94,2653.17C1308.12,2608.85 1301.67,2378.95 1297.07,2333.43C1284.88,2212.77 1291.9,2194.26 1300.22,2074.79C1305.41,2000.2 1316.44,1779.94 1314.39,1705.29C1310.46,1561.9 1316.46,1496.98 1311.2,1353.56C1307.02,1239.27 1320.57,1219.21 1311.02,1105.04C1304.05,1021.72 1309.3,928.137 1290.98,846.642C1289.77,841.254 1276.69,844.04 1272.78,844.04C1256.06,844.04 1147.9,852.64 1145.82,867.431" style="fill:rgb(108,61,44);"/>
                </g>
                <g transform="matrix(-0.207505,0,0,0.222248,1322.9,153.918)">
                    <path d="M1145.07,893.041C1141.73,890.814 1164.68,1020.9 1167.72,1082.38C1173.55,1200.15 1172.32,1322.6 1187.97,1440.88C1189.07,1449.16 1187.74,1457.56 1187.49,1465.88C1187.28,1472.95 1187.01,1480.01 1186.66,1487.05C1178.97,1642.99 1166.53,1798.85 1158.81,1954.85C1151.92,2094.24 1185.08,2133.5 1170.49,2272.2C1162.04,2352.54 1160.58,2437.74 1153.68,2517.95C1153.46,2520.51 1149.63,2649.89 1150.05,2650C1195.06,2661.6 1291.07,2658.63 1292.94,2653.17C1308.12,2608.85 1301.67,2378.95 1297.07,2333.43C1284.88,2212.77 1291.9,2194.26 1300.22,2074.79C1305.41,2000.2 1316.44,1779.94 1314.39,1705.29C1310.46,1561.9 1316.46,1496.98 1311.2,1353.56C1307.02,1239.27 1320.57,1219.21 1311.02,1105.04C1304.05,1021.72 1309.3,928.137 1290.98,846.642C1289.77,841.254 1276.69,844.04 1272.78,844.04C1256.06,844.04 1147.9,852.64 1145.82,867.431" style="fill:rgb(108,61,44);"/>
                </g>
                <g transform="matrix(0.236695,0.0101909,-0.00892588,0.207313,562.489,-225.331)">
                    <path d="M831.606,2907.03C831.606,2907.03 869.925,2805.68 871.368,2806.71C884.101,2815.79 919.091,2806.23 932.592,2814.22C970.703,2836.77 1079.05,2884.28 1122.51,2893.49C1252.78,2921.09 1261.11,2932.35 1395.88,2937.06C1468.57,2939.61 1662.43,2933.44 1734.98,2926.28C1874.47,2912.5 1935.23,2896.48 2066.38,2846.49C2132.8,2821.18 2169.13,2812.93 2231.17,2777.48C2252.35,2765.38 2289.48,2725.53 2308.95,2710.95C2319.55,2703.02 2394.8,2701.95 2394.8,2705.22C2394.8,2737.75 2411.07,2800.32 2406.96,2811.03C2385.81,2866.09 2126.88,2969.85 2070.53,2988.96C1905.79,3044.83 1562.55,3084.52 1374.71,3055.73C1302,3044.59 1195.83,3040.97 1127.13,3019.16C1074.78,3002.55 1019.44,2996.64 966.745,2978.32C948.356,2971.93 930.865,2963.56 912.539,2957.15C885.338,2947.65 831.606,2907.03 831.606,2907.03Z" style="fill:rgb(148,94,63);"/>
                </g>
                <g transform="matrix(0.194503,0,0,0.168089,617.925,215.522)">
                    <path d="M925,501.377C925,520.8 930.903,567.905 934.52,567.905C960.25,567.905 977.263,563.287 1002.66,561.213C1034.93,558.579 1067.67,561.749 1100,560.712C1192.13,557.757 1283.46,565.687 1375.33,567.543C1454.76,569.147 1534.23,568.572 1613.67,570.209C1720.47,572.41 1820.46,581.838 1927.18,571.542C1990.32,565.45 2053.96,566.876 2117.35,566.876C2129.62,566.876 2162.53,568.811 2175.41,562.309C2177.93,561.035 2178.62,517.891 2177.85,503.047C2177.02,487.114 2177.68,473.659 2173.81,458.823C2173.79,458.737 2072.69,453.748 2067.26,454.319C2005.9,460.774 1997.25,468.542 1935.51,468.542C1709.18,468.542 1482.77,460.882 1256.67,471.043C1182.75,474.365 1111.37,454.061 1037.17,458.378C1008.04,460.073 978.97,459.495 949.994,461.546C949.228,461.6 927.169,462.373 925.667,463.876" style="fill:rgb(92,54,32);"/>
                </g>
                <g transform="matrix(0.266821,0,0,0.21656,540.589,193.596)">
                    <rect x="981.2" y="439.732" width="87.887" height="100.972" style="fill:rgb(148,94,63);"/>
                </g>
                <g transform="matrix(0.266821,0,0,0.209081,752.272,196.411)">
                    <rect x="981.2" y="439.732" width="87.887" height="100.972" style="fill:rgb(148,94,63);"/>
                </g>
                <g transform="matrix(0.207429,0,0,0.207505,599.772,197.45)">
                    <path d="M846.089,818.66C873.446,797.599 934.754,620.196 975.59,541.79C976.328,540.373 1098.39,538.765 1100.17,538.765C1193.22,538.765 1399.42,535.825 1492.96,535.825C1639.63,535.825 2107.66,525.555 2109.81,527.699C2145.77,563.658 2167.61,731.68 2209.48,783.173C2227.12,804.86 2290.08,820.718 2290.08,820.718C2290.08,820.718 2282.38,900.323 2282.38,920.529C2282.38,921.389 2191.99,968.253 2158.02,976.457C2107.24,988.72 2057.38,1003.88 2006.32,1015.61C1958.67,1026.56 1908.61,1025.02 1860.42,1030.98C1778.12,1041.16 1694.34,1062.96 1610.96,1064.92C1570.1,1065.89 1526.09,1064.55 1485.66,1058.25C1466.14,1055.21 1447.36,1045.02 1427.66,1044.04C1403.02,1042.82 1380.82,1051.9 1356.59,1054.48C1319.03,1058.49 1283.11,1051.21 1246.94,1041.72C1230.57,1037.42 1214.12,1033.31 1197.62,1029.32C1120.69,1010.67 1042.75,994.523 966.751,973.551C941.038,966.455 923.257,943.488 898.592,937.301C863.333,928.456 790.978,923.38 790.978,923.38L794.447,836.336" style="fill:rgb(227,201,179);"/>
                </g>
                <g transform="matrix(0.207505,0,0,0.207505,599.598,197.45)">
                    <path d="M795.013,834.958C790.298,833.465 771.276,968.933 787.394,982.494C838.303,1025.33 918.549,1012.35 978.907,1030.49C1023.08,1043.75 1064.36,1060.19 1110.06,1069.26C1253.92,1097.79 1426.44,1134.21 1572.63,1127.92C1669.61,1123.75 1768.59,1102.93 1864.26,1087.13C1940.12,1074.61 2012.72,1077.12 2087.11,1054.77C2114.48,1046.55 2139.67,1026.85 2167.02,1017.68C2185.7,1011.42 2307.05,978.172 2320.02,965.205C2328.14,957.088 2291.42,821.757 2287.72,819.945C2285.87,819.041 2267.57,841.972 2264.79,843.371C2174.93,888.451 2075.58,923.329 1974.84,937.776C1701.26,977.013 1441.33,999.443 1164.85,956.941C1086.15,944.844 998.406,915.399 922.606,894.959C882.763,884.215 834.46,847.451 795.013,834.958Z" style="fill:rgb(241,241,241);"/>
                </g>
                <g transform="matrix(0.207505,0,0,0.207505,599.598,197.45)">
                    <path d="M1796.96,962.625C1794.45,957.696 1805.06,970.429 1807.68,975.305C1813.59,986.326 1814.23,998.379 1816.25,1010.48C1820.78,1037.6 1818.38,1066.85 1811.78,1092.99C1811.5,1094.08 1808.61,1103.93 1810,1104.96C1812.6,1106.89 1821.71,1106.29 1824.82,1105.67C1868.71,1096.97 1857.11,988.008 1833.75,961.196C1826.56,952.938 1796.25,941.58 1796.25,962.978" style="fill:rgb(148,94,63);"/>
                </g>
                <g transform="matrix(-0.206402,-0.0213729,-0.0208126,0.200991,1261.12,243.992)">
                    <path d="M1796.96,962.625C1794.45,957.696 1805.06,970.429 1807.68,975.305C1813.59,986.326 1814.23,998.379 1816.25,1010.48C1820.78,1037.6 1818.38,1066.85 1811.78,1092.99C1811.5,1094.08 1808.61,1103.93 1810,1104.96C1812.6,1106.89 1821.71,1106.29 1824.82,1105.67C1868.71,1096.97 1857.11,988.008 1833.75,961.196C1826.56,952.938 1796.25,941.58 1796.25,962.978" style="fill:rgb(148,94,63);"/>
                </g>
            </g>
        </g>
        <g transform="matrix(1,0,0,1,1.37664,0)">
            <g id="oranges" transform="matrix(1,0,0,1,149.774,-27.8229)">
                <g transform="matrix(0.207505,0,0,0.207505,626.612,-34.1593)">
                    <circle cx="934.826" cy="2906.06" r="55.685" style="fill:rgb(255,136,0);"/>
                </g>
                <g transform="matrix(0.155813,0,0,0.155813,676.232,114.469)">
                    <circle cx="934.826" cy="2906.06" r="55.685" style="fill:rgb(255,182,52);"/>
                </g>
                <g transform="matrix(0.207505,0,0,0.207505,626.744,-33.0803)">
                    <circle cx="943.58" cy="2886.47" r="3.737" style="fill:rgb(67,61,51);"/>
                </g>
                <g transform="matrix(0.207505,0,0,0.207505,626.612,-34.1593)">
                    <path d="M932.677,2865.65C931.751,2864.95 937.21,2868.97 938.379,2871.09C940.35,2874.67 940.971,2884.25 940.971,2883.99" style="fill:rgb(255,136,0);stroke:rgb(255,136,0);stroke-width:6.02px;"/>
                </g>
                <g transform="matrix(0.207505,0,0,0.207505,626.612,-34.1593)">
                    <path d="M938.248,2895.26C930.885,2895.26 927.091,2897.21 921.401,2902.72C920.623,2903.47 916.41,2906.44 916.41,2907.58" style="fill:rgb(255,136,0);stroke:rgb(255,136,0);stroke-width:6.02px;"/>
                </g>
                <g transform="matrix(0.207146,-0.0122159,0.0122159,0.207146,591.421,-21.6393)">
                    <path d="M951.987,2896.5C951.851,2895.95 956.409,2899.61 957.042,2900.19C960.476,2903.32 962.821,2908.21 963.458,2912.83C963.763,2915.04 963.662,2917.28 963.845,2919.5C963.857,2919.65 963.845,2920.97 963.845,2920.15" style="fill:rgb(255,136,0);stroke:rgb(255,136,0);stroke-width:6.02px;"/>
                </g>
                <g transform="matrix(-0.0169122,0.206815,-0.206815,-0.0169122,1463.43,424.888)">
                    <circle cx="934.826" cy="2906.06" r="55.685" style="fill:rgb(255,136,0);"/>
                </g>
                <g transform="matrix(-0.0126991,0.155294,-0.155294,-0.0126991,1311.26,462.229)">
                    <circle cx="934.826" cy="2906.06" r="55.685" style="fill:rgb(255,182,52);"/>
                </g>
                <g transform="matrix(-0.0169122,0.206815,-0.206815,-0.0169122,1462.35,424.932)">
                    <circle cx="943.58" cy="2886.47" r="3.737" style="fill:rgb(67,61,51);"/>
                </g>
                <g transform="matrix(-0.0169122,0.206815,-0.206815,-0.0169122,1463.43,424.888)">
                    <path d="M932.677,2865.65C931.751,2864.95 937.21,2868.97 938.379,2871.09C940.35,2874.67 940.971,2884.25 940.971,2883.99" style="fill:rgb(255,136,0);stroke:rgb(255,136,0);stroke-width:6.02px;"/>
                </g>
                <g transform="matrix(-0.0169122,0.206815,-0.206815,-0.0169122,1463.43,424.888)">
                    <path d="M938.248,2895.26C930.885,2895.26 927.091,2897.21 921.401,2902.72C920.623,2903.47 916.41,2906.44 916.41,2907.58" style="fill:rgb(255,136,0);stroke:rgb(255,136,0);stroke-width:6.02px;"/>
                </g>
                <g transform="matrix(-0.00470761,0.207452,-0.207452,-0.00470761,1453.82,388.793)">
                    <path d="M951.987,2896.5C951.851,2895.95 956.409,2899.61 957.042,2900.19C960.476,2903.32 962.821,2908.21 963.458,2912.83C963.763,2915.04 963.662,2917.28 963.845,2919.5C963.857,2919.65 963.845,2920.97 963.845,2920.15" style="fill:rgb(255,136,0);stroke:rgb(255,136,0);stroke-width:6.02px;"/>
                </g>
            </g>
        </g>
        <g transform="matrix(1,0,0,1,1.37664,0)">
            <g transform="matrix(-0.0251234,-0.205979,0.205979,-0.0251234,445.254,808.264)">
                <circle cx="934.826" cy="2906.06" r="55.685" style="fill:rgb(255,136,0);"/>
            </g>
        </g>
        <g transform="matrix(1,0,0,1,1.37664,0)">
            <g transform="matrix(-0.0188647,-0.154666,0.154666,-0.0188647,586.782,741.014)">
                <circle cx="934.826" cy="2906.06" r="55.685" style="fill:rgb(255,182,52);"/>
            </g>
        </g>
        <g transform="matrix(1,0,0,1,1.37664,0)">
            <g transform="matrix(-0.0251234,-0.205979,0.205979,-0.0251234,446.309,808.001)">
                <circle cx="943.58" cy="2886.47" r="3.737" style="fill:rgb(67,61,51);"/>
            </g>
        </g>
        <g transform="matrix(1,0,0,1,1.37664,0)">
            <g transform="matrix(-0.0251234,-0.205979,0.205979,-0.0251234,445.254,808.264)">
                <path d="M932.677,2865.65C931.751,2864.95 937.21,2868.97 938.379,2871.09C940.35,2874.67 940.971,2884.25 940.971,2883.99" style="fill:rgb(255,136,0);stroke:rgb(255,136,0);stroke-width:6.02px;"/>
            </g>
        </g>
        <g transform="matrix(1,0,0,1,1.37664,0)">
            <g transform="matrix(-0.0251234,-0.205979,0.205979,-0.0251234,445.254,808.264)">
                <path d="M938.248,2895.26C930.885,2895.26 927.091,2897.21 921.401,2902.72C920.623,2903.47 916.41,2906.44 916.41,2907.58" style="fill:rgb(255,136,0);stroke:rgb(255,136,0);stroke-width:6.02px;"/>
            </g>
        </g>
        <g transform="matrix(1,0,0,1,1.37664,0)">
            <g transform="matrix(-0.0372058,-0.204143,0.204143,-0.0372058,461.943,841.68)">
                <path d="M951.987,2896.5C951.851,2895.95 956.409,2899.61 957.042,2900.19C960.476,2903.32 962.821,2908.21 963.458,2912.83C963.763,2915.04 963.662,2917.28 963.845,2919.5C963.857,2919.65 963.845,2920.97 963.845,2920.15" style="fill:rgb(255,136,0);stroke:rgb(255,136,0);stroke-width:6.02px;"/>
            </g>
        </g>
        <g transform="matrix(1,0,0,1,1.37664,0)">
            <g transform="matrix(1,0,0,1,1138.29,167.598)">
                <rect x="-346.646" y="316.673" width="104.305" height="33.685" style="fill:rgb(90,49,0);"/>
            </g>
        </g>
        <g transform="matrix(1,0,0,1,1.37664,0)">
            <g transform="matrix(1,0,0,1,1137.47,225.446)">
                <rect x="-346.646" y="316.673" width="104.305" height="33.685" style="fill:rgb(90,49,0);"/>
            </g>
        </g>
        <g transform="matrix(1,0,0,1,1.37664,0)">
            <g transform="matrix(1,0,0,1.10248,1138.58,109.296)">
                <rect x="-340.502" y="340.088" width="93.643" height="10.188" style="fill:rgb(132,79,30);"/>
            </g>
        </g>
        <g transform="matrix(1,0,0,1,1.37664,0)">
            <g transform="matrix(1,0,0,1.10248,1138.2,120.617)">
                <rect x="-340.502" y="340.088" width="93.643" height="10.188" style="fill:rgb(133,82,7);"/>
            </g>
        </g>
        <g transform="matrix(1,0,0,1,1.37664,0)">
            <g transform="matrix(1,0,0,1.10248,1138.17,131.903)">
                <rect x="-340.502" y="340.088" width="93.643" height="10.188" style="fill:rgb(117,69,12);"/>
            </g>
        </g>
        <g transform="matrix(1,0,0,1,1.37664,0)">
            <g transform="matrix(1,0,0,1.10248,1136.4,167.087)">
                <rect x="-340.502" y="340.088" width="93.643" height="10.188" style="fill:rgb(132,79,30);"/>
            </g>
        </g>
        <g transform="matrix(1,0,0,1,1.37664,0)">
            <g transform="matrix(1,0,0,1.10248,1136.02,178.408)">
                <rect x="-340.502" y="340.088" width="93.643" height="10.188" style="fill:rgb(142,85,2);"/>
            </g>
        </g>
        <g transform="matrix(1,0,0,1,1.37664,0)">
            <g transform="matrix(1,0,0,1.10248,1135.99,189.693)">
                <rect x="-340.502" y="340.088" width="93.643" height="10.188" style="fill:rgb(122,68,3);"/>
            </g>
        </g>
        <g transform="matrix(1,0,0,1,1.37664,0)">
            <g transform="matrix(1,0,0,1.03393,1135.07,154.698)">
                <path d="M-331.334,320.641C-331.334,318.577 -333.068,316.9 -335.203,316.9L-342.939,316.9C-345.074,316.9 -346.807,318.577 -346.807,320.641L-346.807,405.07C-346.807,407.135 -345.074,408.811 -342.939,408.811L-335.203,408.811C-333.068,408.811 -331.334,407.135 -331.334,405.07L-331.334,320.641Z" style="fill:rgb(58,58,58);"/>
            </g>
        </g>
        <g transform="matrix(1,0,0,1,1.37664,0)">
            <g transform="matrix(1,0,0,1.03393,1229.77,154.698)">
                <path d="M-331.334,320.641C-331.334,318.577 -333.068,316.9 -335.203,316.9L-342.939,316.9C-345.074,316.9 -346.807,318.577 -346.807,320.641L-346.807,405.07C-346.807,407.135 -345.074,408.811 -342.939,408.811L-335.203,408.811C-333.068,408.811 -331.334,407.135 -331.334,405.07L-331.334,320.641Z" style="fill:rgb(58,58,58);"/>
            </g>
        </g>
        <g transform="matrix(1,0,0,1,1.37664,0)">
            <g transform="matrix(1,0,0,1,1290.14,167.988)">
                <rect x="-346.646" y="316.673" width="104.305" height="33.685" style="fill:rgb(90,49,0);"/>
            </g>
        </g>
        <g transform="matrix(1,0,0,1,1.37664,0)">
            <g transform="matrix(1,0,0,1,1289.32,225.837)">
                <rect x="-346.646" y="316.673" width="104.305" height="33.685" style="fill:rgb(90,49,0);"/>
            </g>
        </g>
        <g transform="matrix(1,0,0,1,1.37664,0)">
            <g transform="matrix(1,0,0,1.10248,1290.44,109.687)">
                <rect x="-340.502" y="340.088" width="93.643" height="10.188" style="fill:rgb(132,79,30);"/>
            </g>
        </g>
        <g transform="matrix(1,0,0,1,1.37664,0)">
            <g transform="matrix(1,0,0,1.10248,1290.06,121.008)">
                <rect x="-340.502" y="340.088" width="93.643" height="10.188" style="fill:rgb(133,82,7);"/>
            </g>
        </g>
        <g transform="matrix(1,0,0,1,1.37664,0)">
            <g transform="matrix(1,0,0,1.10248,1290.03,132.293)">
                <rect x="-340.502" y="340.088" width="93.643" height="10.188" style="fill:rgb(117,69,12);"/>
            </g>
        </g>
        <g transform="matrix(1,0,0,1,1.37664,0)">
            <g transform="matrix(1,0,0,1.10248,1288.26,167.477)">
                <rect x="-340.502" y="340.088" width="93.643" height="10.188" style="fill:rgb(132,79,30);"/>
            </g>
        </g>
        <g transform="matrix(1,0,0,1,1.37664,0)">
            <g transform="matrix(1,0,0,1.10248,1287.88,178.798)">
                <rect x="-340.502" y="340.088" width="93.643" height="10.188" style="fill:rgb(142,85,2);"/>
            </g>
        </g>
        <g transform="matrix(1,0,0,1,1.37664,0)">
            <g transform="matrix(1,0,0,1.10248,1287.85,190.084)">
                <rect x="-340.502" y="340.088" width="93.643" height="10.188" style="fill:rgb(122,68,3);"/>
            </g>
        </g>
        <g transform="matrix(1,0,0,1,1.37664,0)">
            <g transform="matrix(1,0,0,1.03393,1286.93,155.088)">
                <path d="M-331.334,320.641C-331.334,318.577 -333.068,316.9 -335.203,316.9L-342.939,316.9C-345.074,316.9 -346.807,318.577 -346.807,320.641L-346.807,405.07C-346.807,407.135 -345.074,408.811 -342.939,408.811L-335.203,408.811C-333.068,408.811 -331.334,407.135 -331.334,405.07L-331.334,320.641Z" style="fill:rgb(58,58,58);"/>
            </g>
        </g>
        <g transform="matrix(1,0,0,1,1.37664,0)">
            <g transform="matrix(1,0,0,1.03393,1381.62,155.088)">
                <path d="M-331.334,320.641C-331.334,318.577 -333.068,316.9 -335.203,316.9L-342.939,316.9C-345.074,316.9 -346.807,318.577 -346.807,320.641L-346.807,405.07C-346.807,407.135 -345.074,408.811 -342.939,408.811L-335.203,408.811C-333.068,408.811 -331.334,407.135 -331.334,405.07L-331.334,320.641Z" style="fill:rgb(58,58,58);"/>
            </g>
        </g>
        <g transform="matrix(1,0,0,1,1.37664,0)">
            <g transform="matrix(-0.654097,0,0,0.654097,-47.226,455.102)">
                <path d="M-496.002,402.921C-496.025,402.863 -495.631,403.521 -495.509,403.7C-495.072,404.342 -494.185,407.406 -494.185,409.526C-494.185,410.999 -493.509,415.002 -493.601,416.497C-493.918,421.615 -495.358,426.823 -496.813,431.711C-497.305,433.367 -507.095,434.853 -510.278,435.988C-510.785,436.168 -515.714,437.799 -513.759,438.245C-511.677,438.72 -510.501,437.994 -508.926,437.72C-505.235,437.079 -494.689,435.728 -493.379,436.019C-492.204,436.28 -491.107,436.961 -489.881,437.037C-489.526,437.059 -487.552,437.337 -487.354,436.942C-487.259,436.753 -489.058,435.729 -489.293,435.495C-490.533,434.255 -491.975,428.776 -491.704,427.076C-490.456,419.239 -490.84,409.041 -491.169,406.482C-491.337,405.175 -491.533,404.077 -492.33,402.937C-492.734,402.359 -493.374,401.798 -494.094,401.729C-494.302,401.709 -495.36,401.776 -495.143,401.776" style="fill:rgb(229,136,16);"/>
            </g>
        </g>
        <g transform="matrix(1,0,0,1,1.37664,0)">
            <g transform="matrix(-0.835477,0.08937,0.08937,0.835477,-171.474,424.379)">
                <path d="M-472.982,401.745C-473.472,401.581 -472.982,401.394 -472.982,401.745C-472.982,403.371 -471.801,404.499 -471.57,406.11C-471.256,408.295 -470.153,426.531 -470.935,430.179C-471.422,432.451 -486.214,436.041 -485.196,436.843C-483.575,438.122 -470.257,434.656 -467.692,434.022C-465.503,433.48 -462.006,434.696 -460.337,432.913C-459.715,432.249 -464.825,431.919 -465.556,430.783C-467.374,427.954 -467.63,412.482 -467.879,410.234C-468.148,407.819 -468.175,401.054 -470.604,400.659C-471.317,400.543 -472.66,401.236 -472.219,401.236" style="fill:rgb(255,155,26);"/>
            </g>
        </g>
        <g transform="matrix(1,0,0,1,1.37664,0)">
            <g transform="matrix(0.425692,0,0,0.425692,697.81,504.35)">
                <path d="M-496.002,402.921C-496.025,402.863 -495.631,403.521 -495.509,403.7C-495.072,404.342 -494.185,407.406 -494.185,409.526C-494.185,410.999 -493.509,415.002 -493.601,416.497C-493.918,421.615 -495.358,426.823 -496.813,431.711C-497.305,433.367 -507.095,434.853 -510.278,435.988C-510.785,436.168 -515.714,437.799 -513.759,438.245C-511.677,438.72 -510.501,437.994 -508.926,437.72C-505.235,437.079 -494.689,435.728 -493.379,436.019C-492.204,436.28 -491.107,436.961 -489.881,437.037C-489.526,437.059 -487.552,437.337 -487.354,436.942C-487.259,436.753 -489.058,435.729 -489.293,435.495C-490.533,434.255 -491.975,428.776 -491.704,427.076C-490.456,419.239 -490.84,409.041 -491.169,406.482C-491.337,405.175 -491.533,404.077 -492.33,402.937C-492.734,402.359 -493.374,401.798 -494.094,401.729C-494.302,401.709 -495.36,401.776 -495.143,401.776" style="fill:rgb(229,136,16);"/>
            </g>
        </g>
        <g transform="matrix(1,0,0,1,1.37664,0)">
            <g transform="matrix(0.543735,0.0581628,-0.0581628,0.543735,778.672,484.355)">
                <path d="M-472.982,401.745C-473.472,401.581 -472.982,401.394 -472.982,401.745C-472.982,403.371 -471.801,404.499 -471.57,406.11C-471.256,408.295 -470.153,426.531 -470.935,430.179C-471.422,432.451 -486.214,436.041 -485.196,436.843C-483.575,438.122 -470.257,434.656 -467.692,434.022C-465.503,433.48 -462.006,434.696 -460.337,432.913C-459.715,432.249 -464.825,431.919 -465.556,430.783C-467.374,427.954 -467.63,412.482 -467.879,410.234C-468.148,407.819 -468.175,401.054 -470.604,400.659C-471.317,400.543 -472.66,401.236 -472.219,401.236" style="fill:rgb(255,155,26);"/>
            </g>
        </g>
        <g transform="matrix(1,0,0,1,1.37664,0)">
            <g id="legs" transform="matrix(-0.815348,0,0,0.815348,-126.954,393.825)">
                <g transform="matrix(0.935926,0,0,0.948184,-32.1832,20.1872)">
                    <path d="M-485.523,393.399C-485.523,391.298 -487.251,389.592 -489.379,389.592L-498.425,389.592C-500.553,389.592 -502.282,391.298 -502.282,393.399L-502.282,401.013C-502.282,403.114 -500.553,404.82 -498.425,404.82L-489.379,404.82C-487.251,404.82 -485.523,403.114 -485.523,401.013L-485.523,393.399Z" style="fill:rgb(231,227,227);"/>
                </g>
                <g transform="matrix(1.04674,0,0,1.22449,22.4666,-90.5613)">
                    <path d="M-462.05,393.195C-462.05,391.315 -463.835,389.789 -466.034,389.789L-476.673,389.789C-478.872,389.789 -480.658,391.315 -480.658,393.195L-480.658,400.007C-480.658,401.887 -478.872,403.413 -476.673,403.413L-466.034,403.413C-463.835,403.413 -462.05,401.887 -462.05,400.007L-462.05,393.195Z" style="fill:rgb(248,245,245);"/>
                </g>
            </g>
        </g>
        <g transform="matrix(1,0,0,1,1.37664,0)">
            <g id="body" transform="matrix(-0.815348,0,0,0.815348,-126.954,393.825)">
                <g transform="matrix(1.0264,0,0,1,12.3637,0)">
                    <path d="M-457.01,329.582C-457.01,329.338 -457.367,324.153 -457.148,324.065C-455.589,323.442 -447.079,320.49 -437.066,307.143C-435.97,305.683 -432.358,304.052 -431.095,302.737C-431,302.638 -427.371,301.524 -427.34,301.683C-427.06,303.09 -427.376,304.736 -426.925,305.936C-426.595,306.813 -424.83,306.178 -424.077,306.555C-423.014,307.086 -423.883,309.197 -423.377,310.097C-422.504,311.651 -418.736,310.853 -418.273,312.475C-417.725,314.397 -422.071,316.635 -420.931,318.395C-420.036,319.774 -417.469,319.104 -416.525,320.725C-414.323,324.505 -418.718,328.972 -417.667,332.914C-417.213,334.617 -412.395,333.811 -413.168,336.504C-413.581,337.939 -415.144,339.055 -415.85,340.35C-417.2,342.827 -416.027,346.026 -418.04,348.111C-419.873,350.009 -423.314,350.252 -424.8,352.539C-425.569,353.724 -425.132,355.525 -425.219,356.851C-425.327,358.503 -425.91,360.22 -426.78,361.629C-428.528,364.463 -432.518,364.776 -433.866,367.713C-435.638,371.576 -434.888,376.573 -437.735,379.971C-439.241,381.769 -442.322,382.058 -444.447,382.746C-449.827,384.487 -461.102,390.645 -461.415,390.413C-462.979,389.252 -466.776,369.624 -466.682,366.22C-466.6,363.213 -468.606,342.395 -468.267,340.373C-467.84,337.827 -457.01,329.582 -457.01,329.582Z" style="fill:rgb(248,245,245);"/>
                </g>
                <path d="M-501.283,323.827C-500.355,323.429 -492.351,320.958 -490.466,320.737C-485.648,320.169 -470.168,318.086 -454.016,325.058C-443.329,329.672 -430.567,363.877 -448.637,381.586C-462.33,395.005 -479.071,393.551 -482.485,393.72C-490.121,394.097 -497.697,394.284 -505.178,391.924C-509.073,390.695 -524.77,382.066 -527.18,377.256C-529.441,372.744 -528.095,357.538 -527.725,355.645C-526.954,351.699 -525.302,347.838 -523.851,344.067C-518.806,330.953 -501.283,323.827 -501.283,323.827Z" style="fill:rgb(248,245,245);"/>
            </g>
        </g>
        <g transform="matrix(1,0,0,1,1.37664,0)">
            <g id="head---neck" serif:id="head + neck" transform="matrix(-0.815348,0,0,0.815348,-126.954,393.825)">
                <path id="neck" d="M-517.534,310.089C-514.049,306.936 -504.534,316.631 -503.621,318.495C-499.287,327.346 -504.284,331.419 -505.052,332.571C-507.327,335.983 -510.461,338.732 -513.284,341.654C-517.319,345.832 -521.476,350.396 -523.346,355.85C-529.806,374.691 -525.067,375.701 -526.977,378.053C-527.677,378.915 -539.99,358.021 -540.34,347.721C-541.259,320.642 -520.326,312.614 -517.534,310.089Z" style="fill:rgb(237,237,237);"/>
                <g id="head">
                    <path id="head1" serif:id="head" d="M-549.814,295.297C-544.754,286.881 -535.252,287.611 -531.697,288.266C-528.734,288.811 -526.482,291.109 -524.383,293.078C-519.521,297.639 -512.421,309.031 -514.909,316.46C-518.112,326.026 -532.613,334.291 -539.32,340.73C-541.329,342.658 -544.581,332.783 -544.885,331.43C-545.334,329.434 -543.815,326.956 -544.544,325.139C-545.48,322.81 -548.902,321.973 -548.902,319.075C-548.902,317.469 -544.854,314.172 -545.87,312.823C-547.337,310.873 -549.697,309.059 -550.835,306.798C-551.673,305.134 -552.96,300.529 -549.814,295.297Z" style="fill:rgb(248,245,245);"/>
                    <path id="beak" d="M-548.939,305.104C-549.04,304.904 -549.679,305.652 -549.797,305.744C-550.722,306.454 -551.552,307.2 -552.404,307.998C-554.492,309.951 -554.815,309.918 -556.629,312.139C-558.537,314.473 -559.645,318.082 -559.538,318.136C-558.63,318.595 -554.304,317.371 -553.31,317.371C-550.066,317.371 -546.798,317.285 -545.364,313.554C-544.562,311.465 -547.663,309.843 -548.216,307.863C-548.293,307.588 -548.688,305.811 -549.04,305.811" style="fill:rgb(235,183,47);"/>
                    <g transform="matrix(0.787451,0,0,1,-117.532,-1.4331)">
                        <path d="M-543.044,314.542C-547.349,311.249 -545.474,316.016 -546.171,316.997C-546.293,317.168 -546.398,317.324 -546.482,317.455C-547.56,319.116 -548.2,321.336 -547.05,323.024C-546.093,324.428 -545.089,325.728 -544.847,327.527C-544.557,329.677 -545.654,331.892 -544.521,333.874C-543.912,334.938 -542.247,333.541 -541.587,334.468C-540.957,335.354 -539.794,335.415 -538.307,334.894C-536.405,334.228 -538.079,332.2 -535.629,332.237C-534.048,332.26 -530.239,327.907 -531.483,325.241C-533.158,321.651 -529.412,321.289 -529.936,319.343C-530.319,317.924 -532.027,317.389 -532.805,315.638C-533.269,314.592 -532.852,313.206 -533.392,312.215C-533.615,311.806 -535.155,311.234 -535.451,311.628C-536.333,312.8 -537.175,314.113 -538.539,314.795C-540.85,315.951 -543.044,314.542 -543.044,314.542Z" style="fill:rgb(122,11,11);"/>
                    </g>
                    <path d="M-547.661,302.446C-546.671,300.915 -545.907,299.89 -544.263,299.066C-542.541,298.202 -539.573,298.176 -537.703,298.578C-536.471,298.842 -535.389,299.718 -534.104,299.789C-533.037,299.847 -529.92,299.226 -529.141,299.974C-528.899,300.206 -530.493,301.191 -530.639,301.286C-531.801,302.047 -532.759,302.768 -533.178,304.129C-533.429,304.943 -533.231,305.824 -533.397,306.652C-533.832,308.82 -535.73,312.077 -537.518,313.397C-540.349,315.487 -543.118,314.571 -546.08,313.33C-547.565,312.707 -548.81,312.33 -549.427,310.655C-549.878,309.432 -550.226,307.131 -549.797,305.844C-549.519,305.008 -548.882,304.693 -548.708,303.899" style="fill:rgb(182,54,20);"/>
                    <g transform="matrix(0.802324,0,0,0.802324,-107.074,60.4618)">
                        <path d="M-547.661,302.446C-546.671,300.915 -545.907,299.89 -544.263,299.066C-542.541,298.202 -539.573,298.176 -537.703,298.578C-536.471,298.842 -535.389,299.718 -534.104,299.789C-533.037,299.847 -529.92,299.226 -529.141,299.974C-528.899,300.206 -530.493,301.191 -530.639,301.286C-531.801,302.047 -532.759,302.768 -533.178,304.129C-533.429,304.943 -533.231,305.824 -533.397,306.652C-533.832,308.82 -535.73,312.077 -537.518,313.397C-540.349,315.487 -543.118,314.571 -546.08,313.33C-547.565,312.707 -548.81,312.33 -549.427,310.655C-549.878,309.432 -550.226,307.131 -549.797,305.844C-549.519,305.008 -548.882,304.693 -548.708,303.899" style="fill:rgb(162,28,14);"/>
                    </g>
                    <g id="eyes1" serif:id="eyes">
                        <path id="eye" d="M-539.072,301.836C-541.291,301.406 -541.942,302.441 -542.379,302.935C-544.223,305.016 -543.205,307.409 -540.445,307.409C-539.869,307.409 -539.222,307.472 -538.696,307.19C-536.181,305.846 -537.085,302.22 -539.072,301.836Z" style="fill:rgb(220,220,220);"/>
                        <g id="pupil" transform="matrix(1.18396,0,0,1.18396,99.4113,-54.0656)">
                            <circle cx="-540.877" cy="303.802" r="1.459" style="fill:rgb(83,61,61);"/>
                        </g>
                    </g>
                    <path id="hair" d="M-553.11,298.999C-554.816,297.492 -556.087,295.59 -557.653,294.087C-557.706,294.035 -557.418,293.61 -555.319,294.377C-554.869,294.542 -553.357,296.084 -552.798,295.569C-551.772,294.624 -553.306,292.686 -554.204,291.446C-554.308,291.303 -555.397,289.422 -555.028,289.326C-554.434,289.173 -552.263,290.016 -551.63,290.268C-551.57,290.293 -550.674,290.674 -550.588,290.504C-550.152,289.64 -550.685,287.988 -551.008,287.157C-551.009,287.154 -551.595,285.839 -551.429,285.811C-550.337,285.623 -548.861,287.816 -548.165,288.435C-548.035,288.552 -547.09,289.121 -546.92,288.839C-546.082,287.45 -546.769,285.384 -546.769,283.91C-546.769,283.654 -546.624,282.288 -546.4,282.178C-546.351,282.154 -545.495,283.41 -545.373,283.54C-544.803,284.151 -543.66,284.555 -542.817,284.499C-541.793,284.432 -541.673,283.173 -541.673,282.43L-541.673,281.505C-541.673,281.505 -541.122,282.351 -540.815,282.75C-540.343,283.365 -538.993,286.215 -537.72,285.508C-536.518,284.841 -536.765,281.787 -536.677,280.681C-536.639,280.203 -536.209,279.327 -535.584,279.554C-533.973,280.139 -535.385,282.912 -533.935,283.641C-533.475,283.873 -533.204,281.941 -533.162,281.623C-533.036,280.675 -531.871,279.378 -530.992,279.083C-530.288,278.847 -530.465,282.072 -530.033,282.38C-529.314,282.892 -528.503,281.804 -527.846,281.64C-526.734,281.361 -525.431,282.404 -524.987,283.372C-524.01,285.502 -526.829,285.747 -527.409,287.09C-527.86,288.135 -526.364,289.436 -527.796,289.915C-528.721,290.225 -529.303,289.532 -530.134,289.277C-531.184,288.953 -532.183,288.885 -533.28,288.923C-536.807,289.046 -540.588,290.575 -543.708,292.135C-545.988,293.275 -547.585,295.144 -548.973,297.216C-549.575,298.115 -550.32,300.436 -551.445,300.882C-553.073,301.528 -552.988,298.855 -553.11,298.999" style="fill:rgb(161,3,3);"/>
                </g>
            </g>
        </g>
        <g transform="matrix(1,0,0,1,1.37664,0)">
            <g id="legs1" serif:id="legs" transform="matrix(0.576025,0,0,0.576025,772.161,445.502)">
                <g transform="matrix(0.935926,0,0,0.948184,-32.1832,20.1872)">
                    <path d="M-485.523,393.399C-485.523,391.298 -487.251,389.592 -489.379,389.592L-498.425,389.592C-500.553,389.592 -502.282,391.298 -502.282,393.399L-502.282,401.013C-502.282,403.114 -500.553,404.82 -498.425,404.82L-489.379,404.82C-487.251,404.82 -485.523,403.114 -485.523,401.013L-485.523,393.399Z" style="fill:rgb(231,227,227);"/>
                </g>
                <g transform="matrix(1.04674,0,0,1.22449,22.4666,-90.5613)">
                    <path d="M-462.05,393.195C-462.05,391.315 -463.835,389.789 -466.034,389.789L-476.673,389.789C-478.872,389.789 -480.658,391.315 -480.658,393.195L-480.658,400.007C-480.658,401.887 -478.872,403.413 -476.673,403.413L-466.034,403.413C-463.835,403.413 -462.05,401.887 -462.05,400.007L-462.05,393.195Z" style="fill:rgb(248,245,245);"/>
                </g>
            </g>
        </g>
        <g transform="matrix(1,0,0,1,1.37664,0)">
            <g id="body1" serif:id="body" transform="matrix(0.576025,0,0,0.576025,772.161,445.502)">
                <g transform="matrix(1.0264,0,0,1,12.3637,0)">
                    <path d="M-457.01,329.582C-457.01,329.338 -457.367,324.153 -457.148,324.065C-455.589,323.442 -447.079,320.49 -437.066,307.143C-435.97,305.683 -432.358,304.052 -431.095,302.737C-431,302.638 -427.371,301.524 -427.34,301.683C-427.06,303.09 -427.376,304.736 -426.925,305.936C-426.595,306.813 -424.83,306.178 -424.077,306.555C-423.014,307.086 -423.883,309.197 -423.377,310.097C-422.504,311.651 -418.736,310.853 -418.273,312.475C-417.725,314.397 -422.071,316.635 -420.931,318.395C-420.036,319.774 -417.469,319.104 -416.525,320.725C-414.323,324.505 -418.718,328.972 -417.667,332.914C-417.213,334.617 -412.395,333.811 -413.168,336.504C-413.581,337.939 -415.144,339.055 -415.85,340.35C-417.2,342.827 -416.027,346.026 -418.04,348.111C-419.873,350.009 -423.314,350.252 -424.8,352.539C-425.569,353.724 -425.132,355.525 -425.219,356.851C-425.327,358.503 -425.91,360.22 -426.78,361.629C-428.528,364.463 -432.518,364.776 -433.866,367.713C-435.638,371.576 -434.888,376.573 -437.735,379.971C-439.241,381.769 -442.322,382.058 -444.447,382.746C-449.827,384.487 -461.102,390.645 -461.415,390.413C-462.979,389.252 -466.776,369.624 -466.682,366.22C-466.6,363.213 -468.606,342.395 -468.267,340.373C-467.84,337.827 -457.01,329.582 -457.01,329.582Z" style="fill:rgb(248,245,245);"/>
                </g>
                <path d="M-501.283,323.827C-500.355,323.429 -492.351,320.958 -490.466,320.737C-485.648,320.169 -470.168,318.086 -454.016,325.058C-443.329,329.672 -430.567,363.877 -448.637,381.586C-462.33,395.005 -479.071,393.551 -482.485,393.72C-490.121,394.097 -497.697,394.284 -505.178,391.924C-509.073,390.695 -524.77,382.066 -527.18,377.256C-529.441,372.744 -528.095,357.538 -527.725,355.645C-526.954,351.699 -525.302,347.838 -523.851,344.067C-518.806,330.953 -501.283,323.827 -501.283,323.827Z" style="fill:rgb(248,245,245);"/>
            </g>
        </g>
        <g transform="matrix(1,0,0,1,1.37664,0)">
            <g id="head---neck1" serif:id="head + neck" transform="matrix(0.576025,0,0,0.576025,772.161,445.502)">
                <path id="neck1" serif:id="neck" d="M-517.534,310.089C-514.049,306.936 -504.534,316.631 -503.621,318.495C-499.287,327.346 -504.284,331.419 -505.052,332.571C-507.327,335.983 -510.461,338.732 -513.284,341.654C-517.319,345.832 -521.476,350.396 -523.346,355.85C-529.806,374.691 -525.067,375.701 -526.977,378.053C-527.677,378.915 -539.99,358.021 -540.34,347.721C-541.259,320.642 -520.326,312.614 -517.534,310.089Z" style="fill:rgb(237,237,237);"/>
                <g id="head2" serif:id="head">
                    <path id="head3" serif:id="head" d="M-549.814,295.297C-544.754,286.881 -535.252,287.611 -531.697,288.266C-528.734,288.811 -526.482,291.109 -524.383,293.078C-519.521,297.639 -512.421,309.031 -514.909,316.46C-518.112,326.026 -532.613,334.291 -539.32,340.73C-541.329,342.658 -544.581,332.783 -544.885,331.43C-545.334,329.434 -543.815,326.956 -544.544,325.139C-545.48,322.81 -548.902,321.973 -548.902,319.075C-548.902,317.469 -544.854,314.172 -545.87,312.823C-547.337,310.873 -549.697,309.059 -550.835,306.798C-551.673,305.134 -552.96,300.529 -549.814,295.297Z" style="fill:rgb(248,245,245);"/>
                    <path id="beak1" serif:id="beak" d="M-548.939,305.104C-549.04,304.904 -549.679,305.652 -549.797,305.744C-550.722,306.454 -551.552,307.2 -552.404,307.998C-554.492,309.951 -554.815,309.918 -556.629,312.139C-558.537,314.473 -559.645,318.082 -559.538,318.136C-558.63,318.595 -554.304,317.371 -553.31,317.371C-550.066,317.371 -546.798,317.285 -545.364,313.554C-544.562,311.465 -547.663,309.843 -548.216,307.863C-548.293,307.588 -548.688,305.811 -549.04,305.811" style="fill:rgb(235,183,47);"/>
                    <g transform="matrix(0.787451,0,0,1,-117.532,-1.4331)">
                        <path d="M-543.044,314.542C-547.349,311.249 -545.474,316.016 -546.171,316.997C-546.293,317.168 -546.398,317.324 -546.482,317.455C-547.56,319.116 -548.2,321.336 -547.05,323.024C-546.093,324.428 -545.089,325.728 -544.847,327.527C-544.557,329.677 -545.654,331.892 -544.521,333.874C-543.912,334.938 -542.247,333.541 -541.587,334.468C-540.957,335.354 -539.794,335.415 -538.307,334.894C-536.405,334.228 -538.079,332.2 -535.629,332.237C-534.048,332.26 -530.239,327.907 -531.483,325.241C-533.158,321.651 -529.412,321.289 -529.936,319.343C-530.319,317.924 -532.027,317.389 -532.805,315.638C-533.269,314.592 -532.852,313.206 -533.392,312.215C-533.615,311.806 -535.155,311.234 -535.451,311.628C-536.333,312.8 -537.175,314.113 -538.539,314.795C-540.85,315.951 -543.044,314.542 -543.044,314.542Z" style="fill:rgb(122,11,11);"/>
                    </g>
                    <path d="M-547.661,302.446C-546.671,300.915 -545.907,299.89 -544.263,299.066C-542.541,298.202 -539.573,298.176 -537.703,298.578C-536.471,298.842 -535.389,299.718 -534.104,299.789C-533.037,299.847 -529.92,299.226 -529.141,299.974C-528.899,300.206 -530.493,301.191 -530.639,301.286C-531.801,302.047 -532.759,302.768 -533.178,304.129C-533.429,304.943 -533.231,305.824 -533.397,306.652C-533.832,308.82 -535.73,312.077 -537.518,313.397C-540.349,315.487 -543.118,314.571 -546.08,313.33C-547.565,312.707 -548.81,312.33 -549.427,310.655C-549.878,309.432 -550.226,307.131 -549.797,305.844C-549.519,305.008 -548.882,304.693 -548.708,303.899" style="fill:rgb(182,54,20);"/>
                    <g transform="matrix(0.802324,0,0,0.802324,-107.074,60.4618)">
                        <path d="M-547.661,302.446C-546.671,300.915 -545.907,299.89 -544.263,299.066C-542.541,298.202 -539.573,298.176 -537.703,298.578C-536.471,298.842 -535.389,299.718 -534.104,299.789C-533.037,299.847 -529.92,299.226 -529.141,299.974C-528.899,300.206 -530.493,301.191 -530.639,301.286C-531.801,302.047 -532.759,302.768 -533.178,304.129C-533.429,304.943 -533.231,305.824 -533.397,306.652C-533.832,308.82 -535.73,312.077 -537.518,313.397C-540.349,315.487 -543.118,314.571 -546.08,313.33C-547.565,312.707 -548.81,312.33 -549.427,310.655C-549.878,309.432 -550.226,307.131 -549.797,305.844C-549.519,305.008 -548.882,304.693 -548.708,303.899" style="fill:rgb(162,28,14);"/>
                    </g>
                    <g id="eyes2" serif:id="eyes">
                        <path id="eye1" serif:id="eye" d="M-539.072,301.836C-541.291,301.406 -541.942,302.441 -542.379,302.935C-544.223,305.016 -543.205,307.409 -540.445,307.409C-539.869,307.409 -539.222,307.472 -538.696,307.19C-536.181,305.846 -537.085,302.22 -539.072,301.836Z" style="fill:rgb(220,220,220);"/>
                        <g id="pupil1" serif:id="pupil" transform="matrix(1.18396,0,0,1.18396,99.7687,-55.6195)">
                            <circle cx="-540.877" cy="303.802" r="1.459" style="fill:rgb(83,61,61);"/>
                        </g>
                    </g>
                    <path id="hair1" serif:id="hair" d="M-553.11,298.999C-554.816,297.492 -556.087,295.59 -557.653,294.087C-557.706,294.035 -557.418,293.61 -555.319,294.377C-554.869,294.542 -553.357,296.084 -552.798,295.569C-551.772,294.624 -553.306,292.686 -554.204,291.446C-554.308,291.303 -555.397,289.422 -555.028,289.326C-554.434,289.173 -552.263,290.016 -551.63,290.268C-551.57,290.293 -550.674,290.674 -550.588,290.504C-550.152,289.64 -550.685,287.988 -551.008,287.157C-551.009,287.154 -551.595,285.839 -551.429,285.811C-550.337,285.623 -548.861,287.816 -548.165,288.435C-548.035,288.552 -547.09,289.121 -546.92,288.839C-546.082,287.45 -546.769,285.384 -546.769,283.91C-546.769,283.654 -546.624,282.288 -546.4,282.178C-546.351,282.154 -545.495,283.41 -545.373,283.54C-544.803,284.151 -543.66,284.555 -542.817,284.499C-541.793,284.432 -541.673,283.173 -541.673,282.43L-541.673,281.505C-541.673,281.505 -541.122,282.351 -540.815,282.75C-540.343,283.365 -538.993,286.215 -537.72,285.508C-536.518,284.841 -536.765,281.787 -536.677,280.681C-536.639,280.203 -536.209,279.327 -535.584,279.554C-533.973,280.139 -535.385,282.912 -533.935,283.641C-533.475,283.873 -533.204,281.941 -533.162,281.623C-533.036,280.675 -531.871,279.378 -530.992,279.083C-530.288,278.847 -530.465,282.072 -530.033,282.38C-529.314,282.892 -528.503,281.804 -527.846,281.64C-526.734,281.361 -525.431,282.404 -524.987,283.372C-524.01,285.502 -526.829,285.747 -527.409,287.09C-527.86,288.135 -526.364,289.436 -527.796,289.915C-528.721,290.225 -529.303,289.532 -530.134,289.277C-531.184,288.953 -532.183,288.885 -533.28,288.923C-536.807,289.046 -540.588,290.575 -543.708,292.135C-545.988,293.275 -547.585,295.144 -548.973,297.216C-549.575,298.115 -550.32,300.436 -551.445,300.882C-553.073,301.528 -552.988,298.855 -553.11,298.999" style="fill:rgb(161,3,3);"/>
                </g>
            </g>
        </g>
    </g>
</svg>
