<?xml version="1.0" encoding="iso-8859-1"?>
<!-- Generator: Adobe Illustrator 19.0.0, SVG Export Plug-In . SVG Version: 6.00 Build 0)  -->
<svg version="1.1" id="Capa_1" xmlns="http://www.w3.org/2000/svg" xmlns:xlink="http://www.w3.org/1999/xlink" x="0px" y="0px"
	 viewBox="0 0 512 512" style="enable-background:new 0 0 512 512;" xml:space="preserve">
<path style="fill:#D1FFC5;" d="M384.628,111.934c1.139,8.298,5.72,15.731,12.623,20.48l-88.276,88.276H291.32l-26.483,26.483v-35.31
	L379.42,97.28l3.443,2.737L384.628,111.934z"/>
<path style="fill:#89D84F;" d="M373.77,221.749c-10.108,7.892-14.08,21.336-9.887,33.457L361.941,256h-52.966l-256,256L0.01,459.034
	l229.517-229.517v-91.719c3.778-0.018,7.521-0.733,11.034-2.119l11.211-4.502l11.123,4.502c0.618,0.265,1.236,0.441,1.942,0.706
	v110.786l26.483-26.483h79.448L373.77,221.749z"/>
<rect x="41.064" y="331.072" transform="matrix(-0.7071 0.7071 -0.7071 -0.7071 534.2126 458.52)" style="fill:#76BA44;" width="262.159" height="17.655"/>
<path style="fill:#2A6E3C;" d="M500.181,45.197l-4.361-3.425c-24.417,39.495-63.726,67.478-109.038,77.612
	c2.18,5.252,5.809,9.772,10.47,13.03c8.342,5.756,18.997,6.983,28.425,3.266l11.123-4.502l11.211,4.502
	c15.537,6.135,33.112-1.483,39.256-17.02c0.856-2.163,1.457-4.423,1.792-6.727l1.677-11.917l9.446-7.415
	c13.091-10.284,15.36-29.237,5.076-42.328C503.774,48.384,502.07,46.68,500.181,45.197z"/>
<path style="fill:#307E45;" d="M495.82,41.772l-5.085-3.99l-1.677-11.917C486.905,11.034,474.202,0.026,459.221,0
	c-3.84,0.009-7.654,0.759-11.211,2.207c-3.566,1.404-7.371,2.127-11.211,2.119c-3.805,0-7.583-0.724-11.123-2.119
	C410.246-3.999,392.705,3.469,386.5,18.9c-0.9,2.242-1.527,4.582-1.871,6.965l-1.766,11.917l-9.446,7.415
	c-13.091,10.381-15.289,29.414-4.899,42.505c1.439,1.818,3.09,3.46,4.899,4.899l6.003,4.679l3.443,2.737l1.766,11.917
	c0.397,2.569,1.121,5.067,2.154,7.45C432.094,109.25,471.403,81.267,495.82,41.772z"/>
<path style="fill:#2A6E3C;" d="M500.534,221.749l-4.758-3.734c-19.465,42.152-55.075,74.69-98.807,90.28
	c8.324,6.25,19.288,7.733,28.972,3.937l11.211-4.502l11.123,4.502c15.501,6.162,33.059-1.404,39.221-16.905
	c0.874-2.198,1.492-4.502,1.827-6.841l1.766-11.917l9.446-7.415c13.091-10.381,15.289-29.414,4.899-42.505
	C503.995,224.839,502.353,223.188,500.534,221.749z"/>
<path style="fill:#307E45;" d="M495.776,218.041l-4.687-3.681l-1.766-11.917c-2.11-14.857-14.83-25.891-29.837-25.891
	c-3.84,0.009-7.654,0.759-11.211,2.207c-7.177,2.825-15.157,2.825-22.334,0c-15.466-6.188-33.024,1.342-39.203,16.808
	c-0.883,2.207-1.501,4.502-1.845,6.85l-1.677,11.917l-9.446,7.415c-13.091,10.302-15.351,29.272-5.049,42.355
	c1.474,1.871,3.169,3.566,5.049,5.049l9.446,7.415l1.677,11.917c1.183,7.962,5.535,15.113,12.076,19.809
	C440.701,292.714,476.311,260.184,495.776,218.041z"/>
<path style="fill:#2A6E3C;" d="M310.388,41.49c-19.668,42.143-55.508,74.575-99.399,89.953c5.297,4.131,11.82,6.365,18.538,6.356
	c3.778-0.018,7.521-0.733,11.034-2.119l11.211-4.502l11.123,4.502c0.618,0.265,1.236,0.441,1.942,0.706
	c15.881,5.094,32.883-3.663,37.976-19.544c0.512-1.598,0.892-3.249,1.13-4.908l1.766-11.917l9.445-7.415
	c13.091-10.381,15.289-29.414,4.899-42.505c-1.439-1.818-3.09-3.46-4.899-4.899L310.388,41.49z"/>
<path style="fill:#307E45;" d="M310.388,41.49l-4.679-3.672L303.944,25.9C301.834,11.043,289.114,0,274.107,0
	c-3.84,0.009-7.654,0.759-11.211,2.207c-3.54,1.395-7.318,2.119-11.123,2.119c-3.84,0.009-7.645-0.715-11.211-2.119
	c-15.466-6.188-33.024,1.342-39.203,16.808c-0.883,2.207-1.501,4.502-1.845,6.85l-1.677,11.917l-9.446,7.415
	c-13.091,10.284-15.36,29.237-5.076,42.328c1.483,1.889,3.187,3.593,5.076,5.076l9.446,7.415l1.677,11.917
	c1.13,7.751,5.252,14.751,11.476,19.509C254.889,116.065,290.72,83.633,310.388,41.49z"/>
<g>
</g>
<g>
</g>
<g>
</g>
<g>
</g>
<g>
</g>
<g>
</g>
<g>
</g>
<g>
</g>
<g>
</g>
<g>
</g>
<g>
</g>
<g>
</g>
<g>
</g>
<g>
</g>
<g>
</g>
</svg>
