<svg id="Capa_1" enable-background="new 0 0 512 512" height="512" viewBox="0 0 512 512" width="512" xmlns="http://www.w3.org/2000/svg"><path d="m256 90.964c140.996 0 245.912 52.283 255.296 171.392 10.132 128.598-89.819 233.568-255.296 233.568s-265.428-104.97-255.296-233.568c9.384-119.109 114.3-171.392 255.296-171.392z" fill="#ffaa5c"/><path d="m511.296 262.356c-9.384-119.109-114.3-171.392-255.296-171.392-3.117 0-6.209.035-9.29.086 136.291 2.267 236.829 54.829 246.006 171.306 9.941 126.171-86.093 229.585-246.006 233.444 3.076.074 6.167.124 9.29.124 165.477 0 265.428-104.97 255.296-233.568z" fill="#ff9838"/><path d="m361.715 121.792c-37.054 37.054-105.013 29.17-105.013 29.17s-7.883-67.959 29.17-105.013c31.369-31.369 84.887-30.532 100.571-29.536 2.586.164 4.644 2.222 4.808 4.808.996 15.683 1.833 69.202-29.536 100.571z" fill="#98db7c"/><path d="m386.441 16.413c-1.878-.119-4.299-.236-7.157-.295.561 20.477-1.653 66.454-29.802 94.603-27.615 27.615-72.389 30.27-93.411 29.831.177 6.478.632 10.41.632 10.41s67.96 7.883 105.013-29.17c31.368-31.368 30.532-84.885 29.536-100.57-.164-2.587-2.225-4.645-4.811-4.809z" fill="#82d361"/><path d="m257.431 193.99c-.349 0-.702-.024-1.056-.072-4.233-.577-7.197-4.473-6.626-8.705.032-.239 3.101-24.306-4.717-54.236-10.36-39.665-34.003-70.463-70.272-91.538-3.697-2.148-4.952-6.887-2.804-10.584 2.147-3.697 6.884-4.954 10.584-2.804 50.038 29.077 69.839 71.326 77.638 101.648 8.425 32.759 5.061 58.515 4.914 59.595-.53 3.881-3.85 6.696-7.661 6.696z" fill="#62c136"/><g fill="#ff811a"><path d="m257.421 193.989c-38.556 0-64.201-19.919-65.273-20.767-3.355-2.651-3.924-7.52-1.273-10.875 2.65-3.354 7.52-3.924 10.874-1.273.207.161 22.699 17.43 55.672 17.43s55.466-17.27 55.69-17.444c3.362-2.627 8.227-2.043 10.862 1.311 2.636 3.355 2.069 8.204-1.278 10.85-1.073.849-26.717 20.768-65.274 20.768z"/><path d="m340.251 446.922c0 7.392-5.992 13.384-13.384 13.384s-13.384-5.992-13.384-13.384 5.992-13.384 13.384-13.384 13.384 5.992 13.384 13.384z"/><circle cx="274.822" cy="426.579" r="13.384"/><circle cx="326.871" cy="393.878" r="13.384"/><circle cx="375.877" cy="426.579" r="13.384"/><circle cx="419.412" cy="393.878" r="13.384"/><path d="m389.261 362.685c0 7.392-5.992 13.384-13.384 13.384s-13.384-5.992-13.384-13.384 5.992-13.384 13.384-13.384 13.384 5.992 13.384 13.384z"/><ellipse cx="427.969" cy="341.107" rx="13.384" ry="13.384" transform="matrix(.707 -.707 .707 .707 -115.85 402.528)"/></g></svg>