<?xml version="1.0" encoding="iso-8859-1"?>
<!-- Generator: Adobe Illustrator 19.0.0, SVG Export Plug-In . SVG Version: 6.00 Build 0)  -->
<svg version="1.1" id="Capa_1" xmlns="http://www.w3.org/2000/svg" xmlns:xlink="http://www.w3.org/1999/xlink" x="0px" y="0px"
	 viewBox="0 0 512 512" style="enable-background:new 0 0 512 512;" xml:space="preserve">
<rect x="241" style="fill:#707741;" width="30" height="45"/>
<path style="fill:#EB7330;" d="M343.5,192v-59.5c0-48.325-34.782-87.5-87.5-87.5l-50,211l50,241c11.494,0,22.135-2.236,31.75-6.332
	c9.615,4.096,20.256,6.332,31.75,6.332c52.718,0,87.5-47.01,87.5-105C407,292,343.5,292,343.5,192z"/>
<path style="fill:#F9963B;" d="M168.5,132.5V192c0,100-63.5,100-63.5,200c0,57.99,34.782,105,87.5,105
	c11.494,0,22.135-2.236,31.75-6.332C233.865,494.764,244.506,497,256,497V45C203.282,45,168.5,84.175,168.5,132.5z"/>
<path style="fill:#FCBA66;" d="M319.5,512c-11.054,0-21.705-1.768-31.75-5.261C277.705,510.232,267.054,512,256,512
	c-8.284,0-15-6.716-15-15s6.716-15,15-15c9.173,0,17.877-1.727,25.871-5.132l5.879-2.505l5.879,2.505
	c7.994,3.405,16.698,5.132,25.871,5.132c42.009,0,72.5-37.851,72.5-90c0-45.64-14.287-68.139-29.413-91.959
	C346.609,274.879,328.5,246.36,328.5,192v-59.5c0-42.01-30.491-72.5-72.5-72.5c-8.284,0-15-6.716-15-15s6.716-15,15-15
	c29.115,0,55.505,10.729,74.311,30.21c18.178,18.831,28.189,44.504,28.189,72.29V192c0,45.64,14.287,68.139,29.413,91.959
	C403.891,309.121,422,337.64,422,392c0,32.063-9.693,61.77-27.293,83.648C375.85,499.09,349.141,512,319.5,512z"/>
<path style="fill:#FEDD90;" d="M256,512c-11.054,0-21.705-1.768-31.75-5.261C214.205,510.232,203.554,512,192.5,512
	c-29.641,0-56.35-12.91-75.207-36.352C99.693,453.77,90,424.063,90,392c0-54.36,18.109-82.879,34.087-108.041
	C139.213,260.139,153.5,237.64,153.5,192v-59.5c0-27.786,10.011-53.459,28.189-72.29C200.495,40.729,226.885,30,256,30v30
	c-42.009,0-72.5,30.49-72.5,72.5V192c0,54.36-18.109,82.879-34.087,108.041C134.287,323.861,120,346.36,120,392
	c0,52.149,30.491,90,72.5,90c9.173,0,17.877-1.727,25.871-5.132l5.879-2.505l5.879,2.505C238.123,480.273,246.827,482,256,482V512z"
	/>
<path style="fill:#D95D27;" d="M255.5,287l-30,75l30,75c41.355,0,75-33.645,75-75S296.855,287,255.5,287z"/>
<path style="fill:#EB7330;" d="M180.5,362c0,41.355,33.645,75,75,75V287C214.145,287,180.5,320.645,180.5,362z"/>
<g>
</g>
<g>
</g>
<g>
</g>
<g>
</g>
<g>
</g>
<g>
</g>
<g>
</g>
<g>
</g>
<g>
</g>
<g>
</g>
<g>
</g>
<g>
</g>
<g>
</g>
<g>
</g>
<g>
</g>
</svg>
